<svg width="84" height="38" viewBox="0 0 84 38" fill="none" xmlns="http://www.w3.org/2000/svg">
<g clip-path="url(#clip0_0_4109)">
<rect width="84" height="38" rx="19" fill="white"/>
<path d="M17.128 25V13.2H20.088C20.8667 13.2 21.568 13.336 22.192 13.608C22.8213 13.88 23.3573 14.272 23.8 14.784C24.248 15.2907 24.592 15.9093 24.832 16.64C25.072 17.3653 25.192 18.184 25.192 19.096C25.192 20.008 25.072 20.8293 24.832 21.56C24.592 22.2853 24.248 22.904 23.8 23.416C23.3573 23.928 22.8213 24.32 22.192 24.592C21.568 24.864 20.8667 25 20.088 25H17.128ZM18.504 24.576L17.888 23.8H19.928C20.6853 23.8 21.3547 23.6107 21.936 23.232C22.5227 22.848 22.9813 22.304 23.312 21.6C23.6427 20.896 23.808 20.0613 23.808 19.096C23.808 18.1253 23.6427 17.2907 23.312 16.592C22.9813 15.888 22.5227 15.3467 21.936 14.968C21.3547 14.5893 20.6853 14.4 19.928 14.4H17.888L18.504 13.624V24.576ZM27.664 21.296V20.08H34.232L33.992 20.48C33.992 20.448 33.992 20.4187 33.992 20.392C33.992 20.36 33.992 20.3307 33.992 20.304C33.992 19.8133 33.888 19.3653 33.68 18.96C33.4773 18.5493 33.1733 18.2213 32.768 17.976C32.3627 17.7307 31.8613 17.608 31.264 17.608C30.6613 17.608 30.1307 17.736 29.672 17.992C29.2133 18.248 28.856 18.6107 28.6 19.08C28.344 19.544 28.216 20.0987 28.216 20.744C28.216 21.4 28.3387 21.9653 28.584 22.44C28.8347 22.9147 29.1893 23.28 29.648 23.536C30.1067 23.792 30.6507 23.92 31.28 23.92C31.728 23.92 32.1173 23.8747 32.448 23.784C32.7787 23.688 33.0507 23.5627 33.264 23.408C33.4827 23.248 33.648 23.0747 33.76 22.888C33.872 22.7013 33.9387 22.5147 33.96 22.328H35.32C35.2933 22.6693 35.1867 23.008 35 23.344C34.8133 23.68 34.5493 23.9867 34.208 24.264C33.8667 24.536 33.448 24.7547 32.952 24.92C32.456 25.0853 31.8853 25.168 31.24 25.168C30.3867 25.168 29.6347 24.9813 28.984 24.608C28.3333 24.2347 27.8213 23.7173 27.448 23.056C27.08 22.3947 26.896 21.6347 26.896 20.776C26.896 19.9067 27.0827 19.144 27.456 18.488C27.8293 17.8267 28.344 17.3093 29 16.936C29.656 16.5627 30.4053 16.376 31.248 16.376C32.1067 16.376 32.8507 16.5627 33.48 16.936C34.1093 17.3093 34.5947 17.8213 34.936 18.472C35.2773 19.1173 35.448 19.8533 35.448 20.68C35.448 20.7653 35.4453 20.8773 35.44 21.016C35.4347 21.1547 35.4267 21.248 35.416 21.296H27.664ZM40.8158 25.16C40.3038 25.16 39.8291 25.1067 39.3918 25C38.9598 24.888 38.5811 24.728 38.2558 24.52C37.9358 24.3067 37.6851 24.0453 37.5038 23.736C37.3278 23.4267 37.2398 23.072 37.2398 22.672C37.2398 22.6293 37.2398 22.5867 37.2398 22.544C37.2398 22.496 37.2398 22.456 37.2398 22.424H38.6078C38.6078 22.456 38.6078 22.4827 38.6078 22.504C38.6078 22.5253 38.6078 22.5573 38.6078 22.6C38.6078 23.032 38.8078 23.3627 39.2078 23.592C39.6078 23.816 40.1544 23.928 40.8478 23.928C41.2744 23.928 41.6558 23.8853 41.9918 23.8C42.3278 23.7147 42.5918 23.584 42.7838 23.408C42.9811 23.232 43.0798 23.0107 43.0798 22.744C43.0798 22.3013 42.8718 21.9867 42.4558 21.8C42.0451 21.608 41.4291 21.4427 40.6078 21.304C40.1758 21.2293 39.7651 21.1333 39.3758 21.016C38.9864 20.8933 38.6398 20.736 38.3358 20.544C38.0371 20.352 37.7998 20.1147 37.6238 19.832C37.4531 19.544 37.3678 19.2 37.3678 18.8C37.3678 18.2827 37.5198 17.8453 37.8238 17.488C38.1331 17.1253 38.5491 16.8507 39.0718 16.664C39.5944 16.472 40.1758 16.376 40.8158 16.376C41.4344 16.376 42.0051 16.4747 42.5278 16.672C43.0504 16.8693 43.4691 17.1573 43.7838 17.536C44.1038 17.9093 44.2638 18.3707 44.2638 18.92C44.2638 18.9413 44.2638 18.968 44.2638 19C44.2638 19.0267 44.2638 19.0533 44.2638 19.08H42.9038C42.9038 19.0533 42.9038 19.032 42.9038 19.016C42.9038 19 42.9038 18.9813 42.9038 18.96C42.9038 18.6507 42.8051 18.3973 42.6078 18.2C42.4104 17.9973 42.1544 17.848 41.8398 17.752C41.5251 17.6507 41.1891 17.6 40.8318 17.6C40.4958 17.6 40.1651 17.6373 39.8398 17.712C39.5144 17.7813 39.2451 17.8987 39.0318 18.064C38.8184 18.2293 38.7118 18.456 38.7118 18.744C38.7118 19.032 38.8104 19.264 39.0078 19.44C39.2104 19.6107 39.4931 19.752 39.8558 19.864C40.2238 19.9707 40.6558 20.0693 41.1518 20.16C41.5944 20.24 42.0131 20.3413 42.4078 20.464C42.8024 20.5813 43.1491 20.7333 43.4478 20.92C43.7518 21.1067 43.9891 21.344 44.1598 21.632C44.3358 21.9147 44.4237 22.2613 44.4237 22.672C44.4237 23.088 44.3278 23.4507 44.1358 23.76C43.9491 24.0693 43.6878 24.328 43.3518 24.536C43.0211 24.744 42.6371 24.8987 42.1998 25C41.7678 25.1067 41.3064 25.16 40.8158 25.16ZM46.6165 25V16.504H47.9605V25H46.6165ZM47.2965 14.552C47.0458 14.552 46.8272 14.4827 46.6405 14.344C46.4592 14.2 46.3685 14.0053 46.3685 13.76C46.3685 13.52 46.4592 13.3307 46.6405 13.192C46.8272 13.048 47.0458 12.976 47.2965 12.976C47.5472 12.976 47.7632 13.048 47.9445 13.192C48.1258 13.3307 48.2165 13.52 48.2165 13.76C48.2165 14.0053 48.1258 14.2 47.9445 14.344C47.7632 14.4827 47.5472 14.552 47.2965 14.552ZM55.9136 24.48C56.3723 24.5173 56.775 24.6027 57.1216 24.736C57.4736 24.864 57.7483 25.0533 57.9456 25.304C58.143 25.56 58.2416 25.8933 58.2416 26.304C58.2416 26.7573 58.087 27.1573 57.7776 27.504C57.4683 27.856 56.999 28.1307 56.3696 28.328C55.7403 28.5253 54.9483 28.624 53.9936 28.624C52.6443 28.624 51.6256 28.4267 50.9376 28.032C50.2496 27.6427 49.9056 27.1093 49.9056 26.432C49.9056 26.2187 49.9296 26.0293 49.9776 25.864C50.031 25.704 50.0896 25.5733 50.1536 25.472L51.4496 25.664C51.407 25.7227 51.3643 25.8107 51.3216 25.928C51.2843 26.0507 51.2656 26.192 51.2656 26.352C51.2656 26.7787 51.5083 27.0773 51.9936 27.248C52.479 27.424 53.167 27.512 54.0576 27.512C54.7243 27.512 55.271 27.4667 55.6976 27.376C56.1243 27.2853 56.4416 27.1547 56.6496 26.984C56.8576 26.8133 56.9616 26.6133 56.9616 26.384C56.9616 26.0373 56.815 25.8213 56.5216 25.736C56.2336 25.656 55.8763 25.6 55.4496 25.568L52.2176 25.328C51.679 25.2853 51.239 25.12 50.8976 24.832C50.5616 24.5387 50.3936 24.184 50.3936 23.768C50.3936 23.512 50.455 23.2693 50.5776 23.04C50.7056 22.8107 50.8523 22.6187 51.0176 22.464C51.1883 22.304 51.3403 22.208 51.4736 22.176L52.5456 22.664C52.4123 22.6853 52.247 22.7787 52.0496 22.944C51.8576 23.104 51.7616 23.2933 51.7616 23.512C51.7616 23.7093 51.839 23.872 51.9936 24C52.1483 24.1227 52.455 24.2027 52.9136 24.24L55.9136 24.48ZM57.0896 16.504H58.3696L57.8416 19.848C57.7456 20.472 57.5456 21.0373 57.2416 21.544C56.9376 22.0453 56.5216 22.4453 55.9936 22.744C55.471 23.0373 54.823 23.184 54.0496 23.184C53.2443 23.184 52.5563 23.0373 51.9856 22.744C51.415 22.4507 50.9776 22.0507 50.6736 21.544C50.3696 21.032 50.2176 20.456 50.2176 19.816C50.2176 19.1653 50.375 18.5813 50.6896 18.064C51.0096 17.5413 51.4523 17.1307 52.0176 16.832C52.583 16.528 53.231 16.376 53.9616 16.376C54.6176 16.376 55.191 16.4907 55.6816 16.72C56.1723 16.944 56.559 17.2267 56.8416 17.568C57.1296 17.9093 57.2896 18.2533 57.3216 18.6L56.8096 18.632L57.0896 16.504ZM54.0416 21.968C54.559 21.968 55.0016 21.8827 55.3696 21.712C55.743 21.5413 56.0283 21.2933 56.2256 20.968C56.4283 20.6427 56.5296 20.248 56.5296 19.784C56.5296 19.336 56.4283 18.9493 56.2256 18.624C56.0283 18.2933 55.743 18.04 55.3696 17.864C55.0016 17.6827 54.5616 17.592 54.0496 17.592C53.559 17.592 53.1243 17.6853 52.7456 17.872C52.3723 18.0533 52.079 18.3093 51.8656 18.64C51.6576 18.9707 51.5536 19.36 51.5536 19.808C51.5536 20.2613 51.6523 20.6507 51.8496 20.976C52.0523 21.296 52.3376 21.5413 52.7056 21.712C53.079 21.8827 53.5243 21.968 54.0416 21.968ZM66.3196 25V20.928C66.3196 20.6827 66.3196 20.4827 66.3196 20.328C66.3196 20.168 66.3196 20.016 66.3196 19.872C66.3196 19.4293 66.245 19.0427 66.0956 18.712C65.9463 18.3813 65.7116 18.1253 65.3916 17.944C65.0716 17.7627 64.653 17.672 64.1356 17.672C63.6823 17.672 63.261 17.7893 62.8716 18.024C62.4876 18.2533 62.1783 18.5653 61.9436 18.96C61.7143 19.3493 61.5996 19.7867 61.5996 20.272L60.8236 19.976C60.8236 19.3093 60.9863 18.704 61.3116 18.16C61.6423 17.616 62.0796 17.184 62.6236 16.864C63.173 16.5387 63.7703 16.376 64.4156 16.376C65.0716 16.376 65.645 16.5013 66.1356 16.752C66.6263 17.0027 67.005 17.3627 67.2716 17.832C67.5436 18.296 67.6796 18.856 67.6796 19.512C67.6796 19.7467 67.6796 20.0027 67.6796 20.28C67.6796 20.5573 67.6796 20.816 67.6796 21.056V25H66.3196ZM60.2396 25V16.504H61.5996V25H60.2396Z" fill="#391400"/>
</g>
<defs>
<clipPath id="clip0_0_4109">
<rect width="84" height="38" fill="white"/>
</clipPath>
</defs>
</svg>
