<svg width="152.000000" height="48.000000" viewBox="0 0 152 48" fill="none" xmlns="http://www.w3.org/2000/svg" xmlns:xlink="http://www.w3.org/1999/xlink">
	<desc>
			Created with Pixso.
	</desc>
	<defs>
		<clipPath id="clip0_4610">
			<rect id="logo" width="152.000000" height="48.000000" fill="white" fill-opacity="0"/>
		</clipPath>
	</defs>
	<rect id="logo" width="152.000000" height="48.000000" fill="#FFFFFF" fill-opacity="0"/>
	<g clip-path="url(#clip0_4610)">
		<path id="Agency" d="M67.81 30.02L66.52 34L62.56 34L68.59 16.54L73.34 16.54L79.36 34L75.41 34L74.11 30.02L67.81 30.02ZM70.9 20.53L68.75 27.13L73.19 27.13L71.04 20.53L70.9 20.53ZM93.08 34.12C93.08 37.47 90.42 39.17 86.68 39.17C83.15 39.17 81.13 37.59 80.7 35.53L84.05 35.08C84.35 35.87 85.16 36.57 86.76 36.57C88.34 36.57 89.49 35.87 89.49 34.07L89.49 31.67L89.34 31.67C88.86 32.76 87.69 33.81 85.61 33.81C82.65 33.81 80.29 31.78 80.29 27.43C80.29 22.97 82.72 20.74 85.59 20.74C87.79 20.74 88.85 22.04 89.34 23.1L89.47 23.1L89.47 20.91L93.08 20.91L93.08 34.12ZM107.87 30.25C107.36 32.68 105.18 34.25 101.94 34.25C97.91 34.25 95.45 31.66 95.45 27.51C95.45 23.47 97.94 20.74 101.8 20.74C105.26 20.74 107.95 22.93 107.95 27.38L107.95 28.38L99.03 28.38L99.03 28.39C99.03 30.34 100.19 31.54 102 31.54C103.21 31.54 104.15 31.02 104.52 30.02L107.87 30.25ZM116.43 23.75C114.96 23.75 113.96 24.74 113.95 26.42L113.95 34L110.32 34L110.32 20.91L113.78 20.91L113.78 23.21L113.93 23.21C114.52 21.69 115.93 20.74 117.87 20.74C120.6 20.74 122.39 22.61 122.39 25.66L122.39 34L118.76 34L118.76 26.31C118.77 24.71 117.89 23.75 116.43 23.75ZM137.01 29.2C136.83 32.21 134.64 34.25 131.16 34.25C127.13 34.25 124.71 31.48 124.71 27.5C124.71 23.49 127.17 20.74 131.14 20.74C134.56 20.74 136.85 22.72 137.01 25.75L133.58 25.75C133.38 24.44 132.53 23.57 131.2 23.57C129.51 23.57 128.41 24.98 128.41 27.45C128.41 29.96 129.51 31.38 131.2 31.38C132.44 31.38 133.36 30.6 133.58 29.2L137.01 29.2ZM146.46 35.41C145.71 37.52 144.28 38.91 141.58 38.91C140.66 38.91 139.82 38.75 139.3 38.53L140.12 35.82C141.39 36.21 142.3 36.15 142.78 34.93L142.99 34.37L138.3 20.91L142.11 20.91L144.83 30.52L144.96 30.52L147.7 20.91L151.54 20.91L146.46 35.41ZM101.86 23.44C100.25 23.44 99.11 24.64 99.03 26.13L104.53 26.13C104.52 24.57 103.43 23.44 101.86 23.44ZM84 27.41C84 29.66 84.97 31.08 86.75 31.08C88.5 31.08 89.51 29.72 89.51 27.41C89.51 25.11 88.52 23.62 86.75 23.62C84.96 23.62 84 25.18 84 27.41Z" fill="#FFFFFF" fill-opacity="1.000000" fill-rule="evenodd"/>
		<path id="Polygon" d="M24 0L46.82 16.58L38.1 43.41L9.89 43.41L1.17 16.58L24 0Z" fill="#D8D8D8" fill-opacity="0" fill-rule="nonzero"/>
		<path id="Polygon" d="M40.94 18.49L34.47 38.41L13.52 38.41L7.05 18.49L24 6.18L40.94 18.49ZM46.82 16.58L24 0L1.17 16.58L9.89 43.41L38.1 43.41L46.82 16.58Z" fill="#EF6D58" fill-opacity="1.000000" fill-rule="evenodd"/>
		<path id="Polygon" d="M23.5 14L32.53 20.56L29.08 31.18L17.91 31.18L14.46 20.56L23.5 14Z" fill="#EF6D58" fill-opacity="1.000000" fill-rule="nonzero"/>
	</g>
</svg>
