<svg width="48" height="48" viewBox="0 0 48 48" fill="none" xmlns="http://www.w3.org/2000/svg">
<rect x="0.5" y="0.5" width="47" height="47" rx="23.5" stroke="white" stroke-opacity="0.295743"/>
<path fill-rule="evenodd" clip-rule="evenodd" d="M31 23.5006C31 23.2245 30.7761 23.0006 30.5 23.0006H18.707L21.854 19.8546C21.9805 19.7282 22.0298 19.5438 21.9836 19.3711C21.9373 19.1983 21.8023 19.0634 21.6296 19.0171C21.4568 18.9708 21.2725 19.0202 21.146 19.1466L17.146 23.1466C17.0519 23.2404 16.9991 23.3678 16.9991 23.5006C16.9991 23.6335 17.0519 23.7608 17.146 23.8546L21.146 27.8546C21.2725 27.9811 21.4568 28.0305 21.6296 27.9842C21.8023 27.9379 21.9373 27.803 21.9836 27.6302C22.0298 27.4575 21.9805 27.2731 21.854 27.1466L18.707 24.0006H30.5C30.7761 24.0006 31 23.7768 31 23.5006Z" fill="white"/>
</svg>
