<?xml version="1.0" encoding="UTF-8" standalone="no"?>
<svg
   width="48"
   height="48"
   viewBox="0 0 48 48"
   fill="none"
   version="1.1"
   id="svg1"
   sodipodi:docname="arrow-icon.svg"
   xml:space="preserve"
   inkscape:version="1.3.2 (091e20e, 2023-11-25, custom)"
   xmlns:inkscape="http://www.inkscape.org/namespaces/inkscape"
   xmlns:sodipodi="http://sodipodi.sourceforge.net/DTD/sodipodi-0.dtd"
   xmlns="http://www.w3.org/2000/svg"
   xmlns:svg="http://www.w3.org/2000/svg"><defs
     id="defs1" /><sodipodi:namedview
     id="namedview1"
     pagecolor="#ffffff"
     bordercolor="#000000"
     borderopacity="0.25"
     inkscape:showpageshadow="2"
     inkscape:pageopacity="0.0"
     inkscape:pagecheckerboard="0"
     inkscape:deskcolor="#d1d1d1"
     showgrid="false"
     inkscape:zoom="25.354167"
     inkscape:cx="23.980279"
     inkscape:cy="24"
     inkscape:window-width="2560"
     inkscape:window-height="1494"
     inkscape:window-x="-11"
     inkscape:window-y="-11"
     inkscape:window-maximized="1"
     inkscape:current-layer="svg1" /><rect
     x="0.5"
     y="0.5"
     width="47"
     height="47"
     rx="23.5"
     stroke="white"
     stroke-opacity="0.295743"
     id="rect1" /><g
     style="fill:none"
     id="g1"
     transform="translate(16.980818,19.000089)"><path
       fill-rule="evenodd"
       clip-rule="evenodd"
       d="m 13.9999,4.99991 c 0,-0.27614 -0.2238,-0.5 -0.5,-0.5 H 1.70692 l 3.147,-3.146 C 4.98039,1.22744 5.02978,1.0431 4.98349,0.870338 4.9372,0.697574 4.80225,0.56263 4.62949,0.516338 4.45673,0.470046 4.27239,0.519439 4.14592,0.645911 L 0.145917,4.64591 c -0.0940415,0.09381 -0.146893562,0.22117 -0.146893562,0.354 -10e-10,0.13283 0.052852062,0.2602 0.146893562,0.354 l 4.000003,4 C 4.27239,9.48038 4.45673,9.52978 4.62949,9.48348 4.80225,9.43719 4.9372,9.30225 4.98349,9.12948 5.02978,8.95672 4.98039,8.77238 4.85392,8.64591 l -3.147,-3.146 H 13.4999 c 0.2762,0 0.5,-0.22386 0.5,-0.5 z"
       fill="#ffffff"
       id="path1" /></g></svg>
