<?xml version="1.0" encoding="UTF-8" standalone="no"?>
<svg
   width="48"
   height="48"
   viewBox="0 0 48 48"
   fill="none"
   version="1.1"
   id="svg1"
   sodipodi:docname="arrow-icon3.svg"
   xml:space="preserve"
   inkscape:version="1.3.2 (091e20e, 2023-11-25, custom)"
   xmlns:inkscape="http://www.inkscape.org/namespaces/inkscape"
   xmlns:sodipodi="http://sodipodi.sourceforge.net/DTD/sodipodi-0.dtd"
   xmlns="http://www.w3.org/2000/svg"
   xmlns:svg="http://www.w3.org/2000/svg"><defs
     id="defs1" /><sodipodi:namedview
     id="namedview1"
     pagecolor="#ffffff"
     bordercolor="#000000"
     borderopacity="0.25"
     inkscape:showpageshadow="2"
     inkscape:pageopacity="0.0"
     inkscape:pagecheckerboard="0"
     inkscape:deskcolor="#d1d1d1"
     showgrid="false"
     inkscape:zoom="25.354167"
     inkscape:cx="23.980279"
     inkscape:cy="24"
     inkscape:window-width="2560"
     inkscape:window-height="1494"
     inkscape:window-x="-11"
     inkscape:window-y="-11"
     inkscape:window-maximized="1"
     inkscape:current-layer="svg1" /><rect
     x="0.5"
     y="0.5"
     width="47"
     height="47"
     rx="23.5"
     stroke="white"
     stroke-opacity="0.295743"
     id="rect1" /><g
     style="fill:none"
     id="g1"
     transform="translate(16.979829,19.0001)"><path
       fill-rule="evenodd"
       clip-rule="evenodd"
       d="m 0,4.9999 c 0,-0.27614 0.223858,-0.5 0.5,-0.5 H 12.293 L 9.146,1.3539 c -0.19551,-0.19551 -0.19551,-0.512492 0,-0.708001 0.19551,-0.195509 0.51249,-0.195509 0.708,0 l 4,4.000001 c 0.094,0.0938 0.1469,0.22117 0.1469,0.354 0,0.13283 -0.0529,0.26019 -0.1469,0.354 l -4,4 c -0.19551,0.19551 -0.51249,0.19551 -0.708,0 -0.19551,-0.19551 -0.19551,-0.51249 0,-0.708 l 3.147,-3.146 H 0.5 C 0.223858,5.4999 0,5.27604 0,4.9999 Z"
       fill="#ffffff"
       id="path1" /></g></svg>
