<?xml version="1.0" encoding="UTF-8" standalone="no"?>
<svg
   width="80"
   height="80"
   viewBox="0 0 80 80"
   fill="none"
   version="1.1"
   id="svg1"
   sodipodi:docname="card-image.svg"
   xml:space="preserve"
   inkscape:version="1.3.2 (091e20e, 2023-11-25, custom)"
   xmlns:inkscape="http://www.inkscape.org/namespaces/inkscape"
   xmlns:sodipodi="http://sodipodi.sourceforge.net/DTD/sodipodi-0.dtd"
   xmlns="http://www.w3.org/2000/svg"
   xmlns:svg="http://www.w3.org/2000/svg"><defs
     id="defs1" /><sodipodi:namedview
     id="namedview1"
     pagecolor="#ffffff"
     bordercolor="#000000"
     borderopacity="0.25"
     inkscape:showpageshadow="2"
     inkscape:pageopacity="0.0"
     inkscape:pagecheckerboard="0"
     inkscape:deskcolor="#d1d1d1"
     showgrid="false"
     inkscape:zoom="7.60625"
     inkscape:cx="30.369762"
     inkscape:cy="37.140509"
     inkscape:window-width="2560"
     inkscape:window-height="1494"
     inkscape:window-x="-11"
     inkscape:window-y="-11"
     inkscape:window-maximized="1"
     inkscape:current-layer="svg1" /><circle
     cx="40"
     cy="40"
     r="40"
     fill="#EF6C57"
     id="circle1" /><g
     style="fill:none"
     id="g1"
     transform="translate(23.967132,23.999998)"><path
       fill-rule="evenodd"
       clip-rule="evenodd"
       d="M 1,0 C 0.447715,0 0,0.447715 0,1 V 25.99 26 26.088 c 0.0212881,1.5611 0.652221,3.0519 1.758,4.154 C 2.88171,31.3692 4.40839,32.0019 6,32 h 25 c 0.5523,0 1,-0.4477 1,-1 V 21 c 0,-0.5523 -0.4477,-1 -1,-1 H 20.522 l 8.256,-8.22 c 0.1881,-0.1876 0.2938,-0.4423 0.2938,-0.708 0,-0.2657 -0.1057,-0.5204 -0.2938,-0.708 l -7.07,-7.072 c -0.3905,-0.39038 -1.0235,-0.39038 -1.414,0 L 12,11.554 V 1 C 12,0.447715 11.5523,0 11,0 Z M 26.656,11.068 12,25.668 V 14.376 L 20.998,5.412 Z M 9,26 c 0,-1.6569 -1.34315,-3 -3,-3 -1.65685,0 -3,1.3431 -3,3 0,1.6568 1.34315,3 3,3 1.65685,0 3,-1.3432 3,-3 z m 9.516,-4 H 30 v 8 H 10.486 Z"
       fill="#ffffff"
       id="path1" /></g></svg>
